<?xml version="1.0" encoding="utf-8" ?><svg xmlns="http://www.w3.org/2000/svg" xmlns:xlink="http://www.w3.org/1999/xlink" width="1024" height="1024" viewBox="0 0 1024 1024"><path fill="white" d="M447.091 190.094C457.159 187.278 468.623 185.957 478.99 184.67C636.786 165.068 785.095 274.019 825.44 425.554C827.306 432.561 837.803 475.027 833.215 479.994C833.32 484.738 834.92 484.153 835.328 488.251C835.524 490.215 833.768 492.974 833.978 495.048C835.746 517.708 833.013 539.669 831.383 562.159L832.598 563.009C833.034 567.662 828.343 586.364 827.869 592.434C827.396 598.506 829.76 603.305 829.498 607.426C831.265 616.176 831.957 625.304 832.596 634.101C837.589 702.835 815.447 772.345 773.717 826.956C768.493 833.792 762.975 839.919 753.998 841.503C730.33 845.678 722.312 821.076 713.04 804.49L678.055 740.709L595.956 589.095L537.803 482.5C529.947 467.933 519.304 450.266 512.619 435.445C495.957 464.975 479.696 496.565 463.488 526.492L351.746 730.875L318.82 791.183C313.362 801.325 295.562 839.072 284.24 840.33C264.187 851.597 245.997 819.653 237.224 806.317C204.497 756.569 190.405 698.72 192.723 639.513C193.337 623.823 196.277 609.481 197.292 593.978C196.165 580.993 192.233 567.223 191.24 554.326C188.203 514.882 188.327 477.789 197.002 439.072C199.13 431.653 200.635 423.922 202.813 416.629C233.285 314.563 314.94 228.156 417.649 197.422C427.421 194.498 436.992 192.271 447.091 190.094ZM241.953 666.468C241.83 700.968 253.967 734.214 269.521 764.558C286.636 732.18 304.965 700.785 322.899 668.969L396.29 537.032L460.007 421.848L483.675 379.024C487.801 371.603 491.785 364.123 496.235 356.89C501.726 347.964 508.811 345.691 518.818 347.715C522.581 349.416 526.15 351.773 528.325 355.44C556.214 402.441 581.449 450.924 608.523 498.372C644.734 561.835 680.127 625.748 714.542 690.201C728.122 715.607 744.034 741.266 756.346 767.098C760.762 755.939 766.339 744.169 770.465 733.166C778.221 712.483 783.711 685.677 784.052 663.688C777 676.492 764.383 690.518 747.982 681.975C744.87 680.354 741.223 677.063 739.178 674.157C732.024 662.411 725.903 649.901 719.41 637.797L682.087 568.8L558.936 344.066L521.916 277.383C520.714 275.264 513.479 261.933 512.348 260.845C493.585 292.707 475.422 327.32 457.423 359.821L354.827 546.457L314.128 621.168C305.106 638.014 296.206 655.146 286.27 671.41C282.846 677.015 276.762 682.767 270.285 684.043C254.948 687.066 247.354 678.684 241.953 666.468Z"/><path fill="#FFFAFB" d="M512.716 430.47C531.162 462.126 550.21 498.26 567.717 530.584L628.174 641.485L694.364 763.589L716.52 804.226C720.64 811.714 724.634 819.703 729.328 826.801C740.356 843.477 757.789 842.089 769.462 827.243C807.012 779.487 828.638 721.598 830.457 660.803C830.956 644.15 829.837 629.049 828.166 612.511C830.212 611.093 829.599 609.759 829.498 607.426C831.265 616.176 831.957 625.304 832.596 634.101C837.589 702.835 815.447 772.345 773.717 826.956C768.493 833.792 762.975 839.919 753.998 841.503C730.33 845.678 722.312 821.076 713.04 804.49L678.055 740.709L595.956 589.095L537.803 482.5C529.947 467.933 519.304 450.266 512.619 435.445C495.957 464.975 479.696 496.565 463.488 526.492L351.746 730.875L318.82 791.183C313.362 801.325 295.562 839.072 284.24 840.33C284.295 839.324 288.363 836.922 290.025 835.385C288.227 836.355 287.679 836.527 285.67 836.903C289.076 834.149 292.498 832.227 294.958 828.239C301.762 817.21 308.074 805.049 314.271 793.628L349.244 729.522L447.742 548.712L487.657 475.468C495.729 460.74 504.132 444.798 512.716 430.47Z"/><path fill="#FFFAFB" d="M197.002 439.072L199.395 439.004C187.442 492.764 189.939 541.014 200.14 594.056C200.34 598.373 199.304 603.637 198.619 607.842C186.071 684.822 206.453 763.986 254.578 825.343C261.598 834.293 268.059 840.429 280.086 838.211C281.615 837.929 284.436 837.005 285.67 836.903C287.679 836.527 288.227 836.355 290.025 835.385C288.363 836.922 284.295 839.324 284.24 840.33C264.187 851.597 245.997 819.653 237.224 806.317C204.497 756.569 190.405 698.72 192.723 639.513C193.337 623.823 196.277 609.481 197.292 593.978C196.165 580.993 192.233 567.223 191.24 554.326C188.203 514.882 188.327 477.789 197.002 439.072Z"/><path fill="#FFFAFB" d="M447.091 190.094C457.159 187.278 468.623 185.957 478.99 184.67C636.786 165.068 785.095 274.019 825.44 425.554C827.306 432.561 837.803 475.027 833.215 479.994C832.147 474.871 831.404 464.678 830.47 458.84C816.808 373.526 768.159 295.12 698.119 244.5C640.518 202.87 571.935 182.661 500.945 185.189C482.462 185.847 469.676 188.214 451.725 191.057C449.908 190.909 448.675 190.982 447.091 190.094Z"/><path fill="#FFFAFB" d="M197.002 439.072C199.13 431.653 200.635 423.922 202.813 416.629C233.285 314.563 314.94 228.156 417.649 197.422C427.421 194.498 436.992 192.271 447.091 190.094C448.675 190.982 449.908 190.909 451.725 191.057C418.536 198.243 385.486 209.307 356.056 226.508C277.768 272.266 219.681 350.554 199.395 439.004L197.002 439.072Z"/><path fill="#FFFAFB" d="M831.383 562.159L832.598 563.009C833.034 567.662 828.343 586.364 827.869 592.434C827.396 598.506 829.76 603.305 829.498 607.426C829.599 609.759 830.212 611.093 828.166 612.511C827.683 609.551 825.63 597.566 825.812 595.561C826.671 586.094 829.395 571.346 831.383 562.159Z"/><path fill="#FFFAFB" d="M512.154 254.828C516.672 261.001 526.628 279.165 530.721 286.478L564.436 347.438L683.543 564.891L722.726 637.182L735.468 660.637C739.334 667.745 743.379 677.655 751.67 680.322C770.762 686.464 780.54 665.603 787.615 652.224C786.296 661.247 786.996 674.158 785.673 684.304C781.441 716.751 770.805 744.316 755.489 772.771C744.691 749.858 731.454 727.58 719.098 705.357L671.154 618.119L589.467 471.832C569.833 436.501 551.003 400.776 530.433 365.954C525.551 357.688 524.104 352.942 514.766 350.503C506.029 350.261 502.596 353.518 498.25 360.524C493.234 368.611 488.712 376.932 484.084 385.242L458.476 431.618L383.841 565.835L299.984 716.851C289.897 735.22 278.833 753.889 269.437 772.405C247.625 729.259 238.811 703.22 237.965 653.94C242 661.815 247.939 675.427 255.819 679.293C276.86 689.616 287.03 663.65 294.175 650.49L313.658 614.447L366.752 517.453L512.154 254.828ZM241.953 666.468C241.83 700.968 253.967 734.214 269.521 764.558C286.636 732.18 304.965 700.785 322.899 668.969L396.29 537.032L460.007 421.848L483.675 379.024C487.801 371.603 491.785 364.123 496.235 356.89C501.726 347.964 508.811 345.691 518.818 347.715C522.581 349.416 526.15 351.773 528.325 355.44C556.214 402.441 581.449 450.924 608.523 498.372C644.734 561.835 680.127 625.748 714.542 690.201C728.122 715.607 744.034 741.266 756.346 767.098C760.762 755.939 766.339 744.169 770.465 733.166C778.221 712.483 783.711 685.677 784.052 663.688C777 676.492 764.383 690.518 747.982 681.975C744.87 680.354 741.223 677.063 739.178 674.157C732.024 662.411 725.903 649.901 719.41 637.797L682.087 568.8L558.936 344.066L521.916 277.383C520.714 275.264 513.479 261.933 512.348 260.845C493.585 292.707 475.422 327.32 457.423 359.821L354.827 546.457L314.128 621.168C305.106 638.014 296.206 655.146 286.27 671.41C282.846 677.015 276.762 682.767 270.285 684.043C254.948 687.066 247.354 678.684 241.953 666.468Z"/><path fill="white" d="M491.596 791.683L491.625 792.711C489.083 793.672 480.925 793.137 477.991 792.866C449.791 790.269 421.787 784.847 395.636 773.72C384.664 769.052 373.068 760.307 379.941 746.774C389.138 728.666 399.315 710.797 409.221 693.037L456.015 608.768C465.411 591.922 474.485 574.85 483.643 557.871C488.324 549.192 492.75 540.247 497.755 531.76C502.034 524.502 513.839 522.122 521.019 526.202C523.742 527.75 527.198 531.348 528.864 533.998C535.832 546.876 542.773 559.781 549.863 572.595L603.812 671.507L631.156 721.656C636.072 730.706 652.147 755.155 643.563 763.842C627.879 779.714 594.267 784.917 572.67 789.511C555.729 792.358 530.478 796.579 514.632 792.643C513.178 792.282 513.268 792.339 511.727 792.273C507.12 792.173 502.632 792.271 498.022 792.575C497.215 792.628 492.726 791.838 491.596 791.683Z"/><path fill="#FFFAFB" d="M491.596 791.683L491.625 792.711C489.083 793.672 480.925 793.137 477.991 792.866C449.791 790.269 421.787 784.847 395.636 773.72C384.664 769.052 373.068 760.307 379.941 746.774C389.138 728.666 399.315 710.797 409.221 693.037L456.015 608.768C465.411 591.922 474.485 574.85 483.643 557.871C488.324 549.192 492.75 540.247 497.755 531.76C502.034 524.502 513.839 522.122 521.019 526.202C523.742 527.75 527.198 531.348 528.864 533.998C535.832 546.876 542.773 559.781 549.863 572.595L603.812 671.507L631.156 721.656C636.072 730.706 652.147 755.155 643.563 763.842C627.879 779.714 594.267 784.917 572.67 789.511C555.729 792.358 530.478 796.579 514.632 792.643C513.178 792.282 513.268 792.339 511.727 792.273C551.646 791.09 590.077 787.953 627.407 772.114C654.832 760.478 640.264 745.29 630.35 727.014L605.441 680.898L546.451 573.183C539.886 561.404 533.399 549.588 526.946 537.748C525.905 536.423 524.257 532.87 523.006 531.789C514.164 524.147 502.931 528.064 498.029 537.474C487.509 557.669 476.931 577.482 466.083 597.336L400.691 715.751C396.391 723.655 383.108 744.717 381.727 752.298C381.082 755.839 382.027 759.349 384.098 762.26C394.604 777.028 445.488 786.091 463.378 788.594C472.548 789.877 481.872 790.194 490.99 791.586L491.596 791.683Z"/><path fill="white" fill-opacity="0.11372549" d="M837.709 493.619L838.648 494.082C838.812 494.481 838.33 511.385 838.223 513.385L837.421 513.655C836.513 511.088 836.839 496.715 837.709 493.619Z"/><path fill="white" fill-opacity="0.14117648" d="M837.61 518.701C837.929 518.892 838.451 519.377 838.757 519.639C838.941 524.052 838.466 530.543 838.272 535.107L837.7 535.053C837.282 530.241 836.291 523.147 837.61 518.701Z"/></svg>