<svg width="684" height="684" viewBox="0 0 684 684" fill="none" xmlns="http://www.w3.org/2000/svg">
<circle cx="342" cy="342" r="342" fill="#D9D9D9"/>
<path d="M363.634 433.951H385.342V455.658H407.049V677.82C385.99 681.875 364.243 684 342 684C319.706 684 297.91 681.866 276.805 677.792V455.658H298.513V433.951H320.22V412.244H363.634V433.951ZM426.512 10.5234C574.52 48.1444 684 182.286 684 342C684 467.518 616.382 577.243 515.585 636.735V412.244H493.878V390.536H472.171V368.829H450.464V347.122H428.756V325.415H407.049V303.707H385.342V282H298.513V303.707H276.805V325.415H255.098V347.122H233.391V368.829H211.683V390.536H189.976V412.244H168.269V636.649C67.5527 577.137 0 467.457 0 342C0 182.866 108.687 49.1182 255.878 10.9365V13.707H270.098V27.9268H284.317V42.1465H298.536V56.3662H284.317V70.585H270.098V84.8047H255.878V99.0244H241.658V113.244H227.439V227H298.536V141.683H312.756V127.464H326.976V113.244H355.415V127.464H369.634V141.683H383.854V227H454.951V113.244H440.731V99.0244H426.512V84.8047H412.293V70.585H398.073V56.3662H383.854V42.1465H398.073V27.9268H412.293V13.707H426.512V10.5234Z" fill="black"/>
</svg>
